<svg id="Layer_1" data-name="Layer 1" xmlns="http://www.w3.org/2000/svg" viewBox="0 0 1016.29 587.03"><defs><style>.cls-1,.cls-2{fill:#b5c6e5;}.cls-1{opacity:0.15;}.cls-2{opacity:0.05;}.cls-3,.cls-4,.cls-5{fill:none;stroke:#000;stroke-linejoin:round;}.cls-3{stroke-linecap:round;stroke-width:0.71px;}.cls-4{stroke-width:1.07px;}.cls-5{opacity:0.25;}.cls-6{font-size:12px;fill:#4d4d4d;font-family:Helvetica;}.cls-7{font-size:14.67px;}.cls-11,.cls-12,.cls-18,.cls-7{font-family:FranklinGothicLTPro-CnBk, ITCFranklinGothic LT Pro;}.cls-8{letter-spacing:-0.05em;}.cls-9{letter-spacing:0em;}.cls-10{letter-spacing:-0.03em;}.cls-11,.cls-14{font-size:14px;}.cls-12{font-size:16px;}.cls-13{letter-spacing:-0.08em;}.cls-14{opacity:0.6;font-family:FranklinGothicLTPro-CnBkIt, ITCFranklinGothic LT Pro;font-style:italic;}.cls-15{font-size:28px;font-family:FranklinGothicLTPro-CnDm, ITCFranklinGothic LT Pro;}.cls-16{letter-spacing:-0.01em;}.cls-17{letter-spacing:0.01em;}.cls-18{font-size:12px;}.cls-19{letter-spacing:-0.04em;}.cls-20{letter-spacing:-0.03em;}.cls-21{letter-spacing:-0.02em;}.cls-22{letter-spacing:0.02em;}.cls-23{letter-spacing:-0.07em;}.cls-24{letter-spacing:-0.03em;}.cls-25{letter-spacing:-0.02em;}.cls-26{letter-spacing:-0.02em;}.cls-27{letter-spacing:-0.03em;}.cls-28{letter-spacing:0.02em;}</style></defs><title>richmond_plaid_2</title><rect class="cls-1" x="397.54" y="72.23" width="564.77" height="205.82"/><rect class="cls-2" x="399.36" y="278.87" width="562.95" height="206.01"/><rect class="cls-1" x="680.1" y="72.23" width="282.21" height="413.08"/><path d="M805.6,243.41a2.61,2.61,0,1,1,2.6,2.62,2.62,2.62,0,0,1-2.6-2.62"/><path class="cls-3" d="M805.6,243.41a2.61,2.61,0,1,1,2.6,2.62,2.62,2.62,0,0,1-2.6-2.62"/><path d="M580.15,214.22a2.61,2.61,0,1,1,2.6,2.61,2.61,2.61,0,0,1-2.6-2.61"/><path class="cls-3" d="M580.15,214.22a2.61,2.61,0,1,1,2.6,2.61,2.61,2.61,0,0,1-2.6-2.61"/><path d="M509.79,168.54a2.61,2.61,0,1,1,2.6,2.6,2.62,2.62,0,0,1-2.6-2.6"/><path class="cls-3" d="M509.79,168.54a2.61,2.61,0,1,1,2.6,2.6,2.62,2.62,0,0,1-2.6-2.6"/><path d="M488.6,409.05a2.61,2.61,0,1,1,2.61,2.6,2.61,2.61,0,0,1-2.61-2.6"/><path class="cls-3" d="M488.6,409.05a2.61,2.61,0,1,1,2.61,2.6,2.61,2.61,0,0,1-2.61-2.6"/><path d="M385.19,303.51a2.61,2.61,0,1,1,2.62,2.6,2.61,2.61,0,0,1-2.62-2.6"/><path class="cls-3" d="M385.19,303.51a2.61,2.61,0,1,1,2.62,2.6,2.61,2.61,0,0,1-2.62-2.6"/><path d="M366.54,306.49a2.61,2.61,0,1,1,2.61,2.6,2.62,2.62,0,0,1-2.61-2.6"/><path class="cls-3" d="M366.54,306.49a2.61,2.61,0,1,1,2.61,2.6,2.62,2.62,0,0,1-2.61-2.6"/><path d="M333.49,320.39a2.61,2.61,0,1,1,2.6,2.6,2.61,2.61,0,0,1-2.6-2.6"/><path class="cls-3" d="M333.49,320.39a2.61,2.61,0,1,1,2.6,2.6,2.61,2.61,0,0,1-2.6-2.6"/><path d="M323.32,245.2a2.61,2.61,0,1,1,2.61,2.61,2.61,2.61,0,0,1-2.61-2.61"/><path class="cls-3" d="M323.32,245.2a2.61,2.61,0,1,1,2.61,2.61,2.61,2.61,0,0,1-2.61-2.61"/><path d="M314,325.27a2.61,2.61,0,1,1,2.6,2.6,2.61,2.61,0,0,1-2.6-2.6"/><path class="cls-3" d="M314,325.27a2.61,2.61,0,1,1,2.6,2.6,2.61,2.61,0,0,1-2.6-2.6"/><path d="M312.31,322.62a2.6,2.6,0,1,1,2.6,2.61,2.61,2.61,0,0,1-2.6-2.61"/><path class="cls-3" d="M312.31,322.62a2.6,2.6,0,1,1,2.6,2.61,2.61,2.61,0,0,1-2.6-2.61"/><line class="cls-4" x1="808.2" y1="243.41" x2="808.2" y2="278.77"/><line class="cls-4" x1="582.75" y1="214.22" x2="582.75" y2="278.77"/><line class="cls-4" x1="512.39" y1="168.54" x2="512.39" y2="278.77"/><line class="cls-4" x1="491.21" y1="409.05" x2="491.21" y2="278.77"/><line class="cls-4" x1="387.81" y1="303.51" x2="387.81" y2="278.77"/><line class="cls-4" x1="369.15" y1="306.49" x2="369.15" y2="278.77"/><line class="cls-4" x1="336.09" y1="320.39" x2="336.09" y2="278.77"/><line class="cls-4" x1="325.93" y1="245.2" x2="325.93" y2="278.77"/><line class="cls-4" x1="316.6" y1="325.27" x2="316.6" y2="278.77"/><line class="cls-4" x1="314.91" y1="322.62" x2="314.91" y2="278.77"/><line class="cls-5" x1="115.29" y1="278.77" x2="962.61" y2="278.77"/><line class="cls-5" x1="115.18" y1="505.62" x2="964.09" y2="505.96"/><line class="cls-5" x1="115.73" y1="509.61" x2="115.73" y2="505.96"/><line class="cls-5" x1="327.63" y1="509.61" x2="327.63" y2="505.96"/><line class="cls-5" x1="539.52" y1="509.61" x2="539.52" y2="505.96"/><line class="cls-5" x1="751.42" y1="509.61" x2="751.42" y2="505.96"/><line class="cls-5" x1="751.65" y1="509.61" x2="751.65" y2="505.96"/><line class="cls-5" x1="963.54" y1="509.61" x2="963.54" y2="505.96"/><text class="cls-6" transform="translate(112.05 521.15)">0%</text><text class="cls-6" transform="translate(315.95 521.15)">25%</text><text class="cls-6" transform="translate(527.84 521.15)">50%</text><text class="cls-6" transform="translate(739.74 521.15)">75%</text><text class="cls-6" transform="translate(952.75 521.15)">100%</text><text class="cls-7" transform="translate(402.78 539.33)"><tspan class="cls-8">P</tspan><tspan class="cls-9" x="6.28" y="0">ercent of ads calling </tspan><tspan class="cls-10" x="118.61" y="0">f</tspan><tspan x="121.69" y="0">or skill</tspan></text><text class="cls-11" transform="translate(31.52 379.08) rotate(-90)">Impact of training on matches between<tspan x="39.62" y="14">candidates and job ads</tspan></text><text class="cls-12" transform="translate(24.46 62.15)">Richmond, <tspan class="cls-13" x="66.69" y="0">V</tspan><tspan x="72.78" y="0">A, 2016-2017</tspan></text><text class="cls-14" transform="translate(784.3 559.5)">Source: Burning Glass Technologies</text><text class="cls-15" transform="translate(24.46 40.31)">Impact of additional skill t<tspan class="cls-16" x="285.68" y="0">r</tspan><tspan x="293.99" y="0">aining on matches to C</tspan><tspan class="cls-17" x="543.38" y="0">r</tspan><tspan x="552.37" y="0">itical Care Nursing jobs</tspan></text><text class="cls-18" transform="translate(466.52 138.19)">Neonatal Inte<tspan class="cls-19" x="59.21" y="0">n</tspan><tspan x="64.25" y="0">s</tspan><tspan class="cls-20" x="68.95" y="0">i</tspan><tspan class="cls-21" x="71.1" y="0">v</tspan><tspan x="75.36" y="0">e </tspan><tspan x="0" y="14.4">Ca</tspan><tspan class="cls-22" x="11.65" y="14.4">r</tspan><tspan x="14.95" y="14.4">e Unit (NICU)</tspan></text><text class="cls-18" transform="translate(310.23 235.1)"><tspan class="cls-23">T</tspan><tspan x="3.46" y="0">rauma</tspan></text><text class="cls-18" transform="translate(394.31 304.46)">Planning</text><text class="cls-18" transform="translate(365.33 320.14)">Life Suppo<tspan class="cls-22" x="46.95" y="0">r</tspan><tspan x="50.25" y="0">t</tspan></text><text class="cls-18" transform="translate(335.88 335.34)"><tspan class="cls-24">P</tspan><tspan x="5.36" y="0">atient </tspan><tspan x="0" y="14.4">E</tspan><tspan class="cls-24" x="5.52" y="14.4">v</tspan><tspan x="9.66" y="14.4">aluation</tspan></text><text class="cls-18" transform="translate(282.88 340.48)">P<tspan class="cls-22" x="5.72" y="0">r</tspan><tspan x="9.02" y="0">oblem </tspan><tspan x="0" y="14.4">So</tspan><tspan class="cls-25" x="11.65" y="14.4">l</tspan><tspan x="13.8" y="14.4">ving</tspan></text><text class="cls-11" transform="translate(99.72 311.28) rotate(-90)">As expected</text><text class="cls-11" transform="translate(82.26 435.92) rotate(-90)">Le<tspan class="cls-26" x="11.69" y="0">s</tspan><tspan x="16.9" y="0">s than </tspan><tspan x="1.37" y="16.8">expected</tspan></text><text class="cls-11" transform="translate(82.26 180.25) rotate(-90)">G<tspan class="cls-22" x="7.87" y="0">r</tspan><tspan x="11.72" y="0">eater than </tspan><tspan x="9.03" y="16.8">expected</tspan></text><text class="cls-18" transform="translate(261.87 304.63)">Medical <tspan x="0" y="14.4">A</tspan><tspan class="cls-26" x="5.93" y="14.4">s</tspan><tspan x="10.39" y="14.4">sistance</tspan></text><text class="cls-18" transform="translate(540.29 185.23)"><tspan class="cls-26">A</tspan><tspan class="cls-25" x="5.69" y="0">d</tspan><tspan class="cls-27" x="11.11" y="0">v</tspan><tspan x="15.25" y="0">anced Ca</tspan><tspan class="cls-28" x="56.89" y="0">r</tspan><tspan x="60.19" y="0">diac Life </tspan><tspan x="0" y="14.4">Suppo</tspan><tspan class="cls-22" x="28.62" y="14.4">r</tspan><tspan x="31.92" y="14.4">t (</tspan><tspan class="cls-26" x="41.66" y="14.4">A</tspan><tspan x="47.35" y="14.4">CLS)</tspan></text><text class="cls-18" transform="translate(459.64 425.26)"><tspan class="cls-24">P</tspan><tspan x="5.36" y="0">atient Ca</tspan><tspan class="cls-22" x="44.94" y="0">r</tspan><tspan x="48.24" y="0">e</tspan></text><text class="cls-18" transform="translate(759.45 229.06)">Critical Ca<tspan class="cls-22" x="44.67" y="0">r</tspan><tspan x="47.97" y="0">e Nu</tspan><tspan class="cls-28" x="68.55" y="0">r</tspan><tspan x="71.85" y="0">sing</tspan></text></svg>