<?xml version="1.0" encoding="utf-8"?>
<!-- Generator: Adobe Illustrator 24.0.0, SVG Export Plug-In . SVG Version: 6.00 Build 0)  -->
<svg version="1.1" id="Layer_1" xmlns="http://www.w3.org/2000/svg" xmlns:xlink="http://www.w3.org/1999/xlink" x="0px" y="0px"
	 viewBox="0 0 1136 847" style="enable-background:new 0 0 1136 847;" xml:space="preserve">
<style type="text/css">
	.st0{fill:none;stroke:#4987E5;stroke-width:5.16;stroke-opacity:0.349;}
	.st1{fill:none;stroke:#E57200;stroke-width:3.06;stroke-opacity:0.349;}
	.st2{fill:none;stroke:#4987E5;stroke-width:6;stroke-opacity:0.349;}
	.st3{fill:none;stroke:#E57200;stroke-width:2.64;stroke-opacity:0.349;}
	.st4{fill:none;stroke:#4987E5;stroke-width:3.06;stroke-opacity:0.349;}
	.st5{fill:none;stroke:#E57200;stroke-width:2.22;stroke-opacity:0.349;}
	.st6{fill:none;stroke:#4987E5;stroke-width:2.64;stroke-opacity:0.349;}
	.st7{fill:none;stroke:#E57200;stroke-width:1.8;stroke-opacity:0.349;}
	.st8{fill:none;stroke:#4987E5;stroke-width:2.22;stroke-opacity:0.349;}
	.st9{fill:none;stroke:#4987E5;stroke-width:1.8;stroke-opacity:0.349;}
	.st10{fill:#4987E5;fill-opacity:0.349;}
	.st11{fill:#E57200;fill-opacity:0.349;}
	.st12{fill:#FFFFFF;fill-opacity:0.8;stroke:#000000;stroke-width:0.4;stroke-opacity:0.8;}
	.st13{font-family:'AvenirNext-Regular';}
	.st14{font-size:30px;}
	.st15{font-family:'AvenirNext-DemiBold';}
	.st16{font-size:42px;}
	.st17{font-size:27px;}
	.st18{font-size:60px;}
	.st19{font-size:33px;}
	.st20{font-size:24px;}
	.st21{font-size:39px;}
</style>
<g id="edges">
	<path class="st0" d="M341.2,512.4l2.7,43.6"/>
	<path class="st1" d="M908,267.2l-49.6,15.1"/>
	<path class="st2" d="M345.2,576.6l-2.5-40.3"/>
	<path class="st1" d="M778.7,452l-71,225.7"/>
	<path class="st3" d="M243.1,553.2l70.9,33.6"/>
	<path class="st4" d="M372.3,599.5l65.9-7.1"/>
	<path class="st3" d="M821,311.8l-19.8,66.6"/>
	<path class="st5" d="M838.8,349l-25.9,36.9"/>
	<path class="st5" d="M435.4,646.6l-57.7-28.8"/>
	<path class="st5" d="M337.5,626.3L326,656.2"/>
	<path class="st6" d="M462.7,369.8l7.9-10.4"/>
	<path class="st5" d="M718.4,716.6l43.5,13.2"/>
	<path class="st5" d="M567.8,384.2l179.3,29.3"/>
	<path class="st5" d="M821.8,421l96,2"/>
	<path class="st5" d="M413,183.4l-74.2,11.2"/>
	<path class="st7" d="M81.1,328.1l62.6-17.1"/>
	<path class="st7" d="M862.5,550.3l26.4,18.1"/>
	<path class="st7" d="M362.5,166.8l43.5,7.3"/>
	<path class="st7" d="M625.4,341.9l126.8,60.9"/>
	<path class="st7" d="M384.2,240.4l32.3-36.2"/>
	<path class="st7" d="M869.1,619.9l20.4-15"/>
	<path class="st7" d="M381.8,118.2l34.3,37.2"/>
	<path class="st7" d="M929.6,633.8l-5.3-17.3"/>
	<path class="st7" d="M870.3,461l-45.5-22.7"/>
	<path class="st7" d="M911.8,333.7L821.7,397"/>
	<path class="st7" d="M904.6,608.3l-22.7,48"/>
	<path class="st7" d="M292.4,757.9l-4,13.2"/>
	<path class="st7" d="M199.3,375.8l-18.4-46.2"/>
	<path class="st7" d="M751.9,213l21.8-14.4"/>
	<path class="st7" d="M1056.8,402.4l-227.8,15.2"/>
	<path class="st7" d="M722.1,50.4L781,70.6"/>
	<path class="st7" d="M323.6,591.3l-74-35"/>
	<path class="st7" d="M362.1,622.9l44.9,60.4"/>
	<path class="st7" d="M325.4,616.5l-93.2,61.9"/>
	<path class="st7" d="M321.2,604.9l-80.2,8.3"/>
	<path class="st7" d="M430.6,368.3l-28.3-45.2"/>
	<path class="st7" d="M822.8,89.5l40.1,24.9"/>
	<path class="st7" d="M643.6,218.5l13,19.6"/>
	<path class="st7" d="M687.7,690.6l-14.2-28.8"/>
	<path class="st7" d="M716.2,698.8l27.9-17"/>
	<path class="st8" d="M676.4,704l-39.9-11.8"/>
	<path class="st7" d="M701,731.9l5.9,36"/>
	<path class="st7" d="M679.4,697.7l-67.6-47"/>
	<path class="st7" d="M712.3,726.4l11.2,12.1"/>
	<path class="st7" d="M704,689.3l72.5-230.5"/>
	<path class="st7" d="M233.8,614l80.2-8.3"/>
	<path class="st7" d="M171.6,283l2.1-45.9"/>
	<path class="st7" d="M345.6,407.2l64.9-9.8"/>
	<path class="st7" d="M409.4,459.2l19.3-35.8"/>
	<path class="st7" d="M323.5,367.4l87.3,17.7"/>
	<path class="st7" d="M1017.4,229.6l35.7-12.3"/>
	<path class="st7" d="M577,615l-8.1-14.2"/>
	<path class="st7" d="M567.4,626.2L497,598.9"/>
	<path class="st7" d="M377.4,358.7l36.4,17.9"/>
	<path class="st7" d="M332.7,448.7l81.2-40.7"/>
	<path class="st7" d="M459.9,753.6l-19.5-25.7"/>
	<path class="st7" d="M310,701.2l-3.9,12.7"/>
	<path class="st7" d="M1011.8,700.2l-76.3-89.8"/>
	<path class="st7" d="M410.4,548.4L371.9,581"/>
	<path class="st7" d="M689.8,250.8l22.9-13.5"/>
	<path class="st7" d="M677.2,241.3l15.5-60.4"/>
	<path class="st7" d="M669,240.8L654,138"/>
	<path class="st7" d="M820.1,409.6l81.8-27.7"/>
	<path class="st7" d="M814.3,441.3l60.2,49.3"/>
	<path class="st7" d="M755.8,425l-202.1,29.2"/>
	<path class="st7" d="M819.3,407.7l166.7-68.5"/>
	<path class="st7" d="M821.3,414.4L984.6,385"/>
	<path class="st7" d="M820.8,428.4L946,460.2"/>
	<path class="st7" d="M765.9,444.5L607.8,612.9"/>
	<path class="st7" d="M819,433.7l162.5,71.9"/>
	<path class="st7" d="M806.6,287.9l-107.2-21.2"/>
	<path class="st7" d="M415.6,191.4l-40.3,20.9"/>
	<path class="st7" d="M446.6,203.9l4.2,12.5"/>
	<path class="st7" d="M415.3,168.4l-78.8-37.9"/>
	<path class="st8" d="M444.6,364l-5-149.9"/>
	<path class="st8" d="M782.6,540.2l3.9-77.9"/>
	<path class="st8" d="M654.1,271.7l-176.4,102"/>
	<path class="st9" d="M664.5,759l16.6-24.6"/>
	<path class="st9" d="M615.7,421.2l132.5-0.7"/>
	<path class="st9" d="M535.8,183.9l-64.5-2.9"/>
	<path class="st9" d="M648.5,726.2l21.3-6.9"/>
	<path class="st9" d="M490.3,596.3l70.4,27.3"/>
	<path class="st9" d="M506.6,207.4L468.9,192"/>
	<path class="st9" d="M875.1,231.8l-30.8,38.4"/>
	<path class="st9" d="M939.3,583.4l73.1-8.6"/>
	<path class="st9" d="M707.4,447.3l42.9-14.2"/>
	<path class="st9" d="M473.2,397.6l96.9,18.7"/>
	<path class="st9" d="M467.4,410.1l37.1,30.4"/>
	<path class="st9" d="M425,411.5l-64.8,61.1"/>
	<path class="st9" d="M473.6,389.2l48.6-5.2"/>
	<path class="st9" d="M563.5,261.5L755.6,397"/>
	<path class="st9" d="M1030.8,634.8l-86.6-36.3"/>
	<path class="st9" d="M457.9,324.1l-6.1,33.3"/>
	<path class="st9" d="M983,241.6l-31.3,11"/>
	<path class="st9" d="M587.3,612.2l-1.3-52.7"/>
	<path class="st9" d="M322.7,664.5l12.2-31.5"/>
	<path class="st9" d="M427,518.6l13.4-91.4"/>
	<path class="st9" d="M771.1,448.5l-50.4,80.9"/>
	<path class="st9" d="M803.1,450.1l31.7,65.2"/>
	<path class="st9" d="M771.6,391.8l-40.3-67.4"/>
	<path class="st9" d="M783.8,387.4l-4.7-32.5"/>
	<path class="st9" d="M761.1,438.8l-66.9,45"/>
	<path class="st9" d="M765.1,396.8l-43.9-43.8"/>
	<path class="st9" d="M792.9,453.2l4,30.8"/>
	<path class="st9" d="M427.7,156.2l-30.3-65.7"/>
	<path class="st9" d="M457.5,196.8l130.7,118.8"/>
	<path class="st9" d="M460,193.5l65.3,42.3"/>
	<path class="st9" d="M463.2,172.9l26.6-7.2"/>
	<path class="st9" d="M439,153.9l2-92.1"/>
	<path class="st9" d="M450.5,156.8l29.9-56.5"/>
	<path class="st9" d="M458.6,163.6l43.9-34.9"/>
</g>
<g id="arrows">
	<polyline class="st10" points="345.2,576.6 333.6,556.7 354.2,555.4 	"/>
	<polyline class="st11" points="846.7,285.9 856.6,276.5 860.2,288.2 	"/>
	<polyline class="st10" points="341.2,512.4 354.6,535.6 330.7,537.1 	"/>
	<polyline class="st11" points="704,689.3 701.8,675.8 713.5,679.5 	"/>
	<polyline class="st11" points="323.6,591.3 311.7,591.5 316.3,582 	"/>
	<polyline class="st10" points="450.4,591.1 438.9,598.5 437.6,586.3 	"/>
	<polyline class="st11" points="798.1,388.5 796.1,376.8 806.2,379.9 	"/>
	<polyline class="st11" points="807.7,393.1 809.2,383.3 816.5,388.4 	"/>
	<polyline class="st11" points="369.8,613.8 379.7,613.8 375.7,621.7 	"/>
	<polyline class="st11" points="322.7,664.5 321.8,654.6 330.1,657.8 	"/>
	<polyline class="st10" points="477.1,351.1 474.8,362.7 466.4,356.2 	"/>
	<polyline class="st11" points="770.5,732.4 760.7,734.1 763.3,725.6 	"/>
	<polyline class="st11" points="755.9,414.9 746.4,417.9 747.8,409.1 	"/>
	<polyline class="st11" points="926.7,423.2 917.8,427.4 917.9,418.5 	"/>
	<polyline class="st11" points="330,196 338.1,190.2 339.4,199 	"/>
	<polyline class="st11" points="150.6,309.1 144.6,314.5 142.7,307.5 	"/>
	<polyline class="st11" points="894.8,572.4 886.9,571.3 890.9,565.4 	"/>
	<polyline class="st11" points="413.1,175.3 405.4,177.6 406.6,170.5 	"/>
	<polyline class="st11" points="758.7,405.9 750.6,406 753.8,399.6 	"/>
	<polyline class="st11" points="421.3,198.7 419.2,206.5 413.8,201.7 	"/>
	<polyline class="st11" points="895.3,600.7 891.6,607.9 887.4,602.1 	"/>
	<polyline class="st11" points="421,160.7 413.5,157.8 418.8,152.9 	"/>
	<polyline class="st11" points="922.2,609.6 927.7,615.4 920.8,617.6 	"/>
	<polyline class="st11" points="818.3,435.1 826.4,435.1 823.2,441.5 	"/>
	<polyline class="st11" points="815.8,401.2 819.6,394.1 823.7,400 	"/>
	<polyline class="st11" points="878.8,662.9 878.6,654.8 885.1,657.9 	"/>
	<polyline class="st11" points="286.3,778 284.9,770 291.8,772.1 	"/>
	<polyline class="st11" points="178.3,322.9 184.3,328.2 177.6,330.9 	"/>
	<polyline class="st11" points="779.7,194.7 775.7,201.7 771.7,195.7 	"/>
	<polyline class="st11" points="821.7,418.1 828.7,414 829.2,421.2 	"/>
	<polyline class="st11" points="787.9,72.9 779.9,74 782.2,67.2 	"/>
	<polyline class="st11" points="243.1,553.2 251.1,553 248,559.5 	"/>
	<polyline class="st11" points="411.3,689.1 404.1,685.5 409.9,681.2 	"/>
	<polyline class="st11" points="226.1,682.3 230.1,675.4 234.1,681.4 	"/>
	<polyline class="st11" points="233.8,614 240.6,609.6 241.3,616.8 	"/>
	<polyline class="st11" points="398.4,317.1 405.3,321.3 399.2,325.1 	"/>
	<polyline class="st11" points="869,118.2 861,117.5 864.8,111.4 	"/>
	<polyline class="st11" points="660.6,244.1 653.6,240.1 659.6,236.1 	"/>
	<polyline class="st11" points="670.3,655.3 676.8,660.2 670.3,663.3 	"/>
	<polyline class="st11" points="750.2,678.1 746,685 742.2,678.8 	"/>
	<polyline class="st10" points="628,689.7 637.8,687.9 635.2,696.4 	"/>
	<polyline class="st11" points="708,775.1 703.3,768.5 710.4,767.4 	"/>
	<polyline class="st11" points="605.9,646.6 613.9,647.8 609.8,653.7 	"/>
	<polyline class="st11" points="728.4,743.8 720.9,741 726.2,736.1 	"/>
	<polyline class="st11" points="778.7,452 779.9,459.9 773.1,457.7 	"/>
	<polyline class="st11" points="321.2,604.9 314.4,609.3 313.7,602.1 	"/>
	<polyline class="st11" points="174,229.9 177.3,237.2 170.1,236.9 	"/>
	<polyline class="st11" points="417.7,396.4 411.1,401 410,393.9 	"/>
	<polyline class="st11" points="432.1,417 431.9,425.1 425.6,421.6 	"/>
	<polyline class="st11" points="417.9,386.6 410.1,388.7 411.6,381.6 	"/>
	<polyline class="st11" points="1060,215 1054.3,220.7 1052,213.9 	"/>
	<polyline class="st11" points="565.4,594.6 572.1,599.1 565.8,602.6 	"/>
	<polyline class="st11" points="490.3,596.3 498.3,595.5 495.7,602.3 	"/>
	<polyline class="st11" points="420.2,379.8 412.2,379.8 415.4,373.4 	"/>
	<polyline class="st11" points="420.3,404.8 415.5,411.3 412.3,404.8 	"/>
	<polyline class="st11" points="436.1,722.2 443.4,725.8 437.6,730.1 	"/>
	<polyline class="st11" points="303.9,720.7 302.6,712.8 309.5,714.9 	"/>
	<polyline class="st11" points="930.8,604.9 938.3,608 932.8,612.7 	"/>
	<polyline class="st11" points="366.4,585.7 369.6,578.3 374.2,583.8 	"/>
	<polyline class="st11" points="718.9,233.6 714.6,240.4 710.9,234.2 	"/>
	<polyline class="st11" points="694.5,173.9 696.2,181.8 689.2,180 	"/>
	<polyline class="st11" points="653,130.9 657.6,137.5 650.5,138.6 	"/>
	<polyline class="st11" points="908.7,379.6 903,385.4 900.7,378.5 	"/>
	<polyline class="st11" points="880.1,495.2 872.3,493.4 876.8,487.9 	"/>
	<polyline class="st11" points="546.5,455.2 553.1,450.6 554.2,457.7 	"/>
	<polyline class="st11" points="992.7,336.5 987.4,342.5 984.7,335.9 	"/>
	<polyline class="st11" points="991.7,383.7 985.3,388.6 984,381.5 	"/>
	<polyline class="st11" points="953,462 945.1,463.7 946.9,456.7 	"/>
	<polyline class="st11" points="602.9,618.1 605.2,610.4 610.5,615.3 	"/>
	<polyline class="st11" points="988.1,508.5 980,508.9 982.9,502.3 	"/>
	<polyline class="st11" points="692.3,265.3 700.1,263.2 698.7,270.3 	"/>
	<polyline class="st11" points="368.9,215.7 373.7,209.2 377,215.5 	"/>
	<polyline class="st11" points="453.1,223.3 447.4,217.6 454.2,215.3 	"/>
	<polyline class="st11" points="330,127.4 338,127.2 334.9,133.7 	"/>
	<polyline class="st10" points="439.3,205.2 444,214 435.2,214.3 	"/>
	<polyline class="st10" points="787,453.4 791,462.5 782.1,462.1 	"/>
	<polyline class="st10" points="470,378.1 475.4,369.8 479.9,377.5 	"/>
	<polyline class="st10" points="685.1,728.4 684.1,736.4 678.1,732.4 	"/>
	<polyline class="st10" points="755.4,420.5 748.2,424.1 748.2,416.9 	"/>
	<polyline class="st10" points="464.1,180.7 471.5,177.4 471.1,184.6 	"/>
	<polyline class="st10" points="676.6,717.1 670.8,722.7 668.6,715.9 	"/>
	<polyline class="st10" points="567.4,626.2 559.4,626.9 562,620.2 	"/>
	<polyline class="st10" points="462.2,189.3 470.3,188.7 467.5,195.3 	"/>
	<polyline class="st10" points="839.8,275.8 841.5,267.9 847.1,272.4 	"/>
	<polyline class="st10" points="1019.6,573.9 1012.8,578.3 1012,571.2 	"/>
	<polyline class="st10" points="757.1,430.7 751.4,436.4 749.1,429.6 	"/>
	<polyline class="st10" points="577.2,417.6 569.4,419.8 570.8,412.7 	"/>
	<polyline class="st10" points="510,445 502.2,443.3 506.7,437.7 	"/>
	<polyline class="st10" points="354.9,477.5 357.7,470 362.7,475.2 	"/>
	<polyline class="st10" points="529.3,383.2 522.5,387.5 521.8,380.4 	"/>
	<polyline class="st10" points="761.5,401.2 753.5,399.9 757.7,394.1 	"/>
	<polyline class="st10" points="937.6,595.7 945.6,595.2 942.8,601.8 	"/>
	<polyline class="st10" points="450.6,364.5 448.3,356.7 455.4,358 	"/>
	<polyline class="st10" points="944.9,255 950.5,249.2 952.9,256 	"/>
	<polyline class="st10" points="585.9,552.3 589.6,559.4 582.4,559.6 	"/>
	<polyline class="st10" points="337.5,626.3 338.3,634.3 331.6,631.7 	"/>
	<polyline class="st10" points="441.4,420.1 444,427.8 436.8,426.7 	"/>
	<polyline class="st10" points="716.8,535.4 717.6,527.4 723.7,531.2 	"/>
	<polyline class="st10" points="837.9,521.8 831.6,516.9 838,513.8 	"/>
	<polyline class="st10" points="727.6,318.2 734.4,322.5 728.2,326.2 	"/>
	<polyline class="st10" points="778.1,347.8 782.7,354.4 775.6,355.5 	"/>
	<polyline class="st10" points="688.1,487.8 692.1,480.8 696.1,486.8 	"/>
	<polyline class="st10" points="716.1,348 723.7,350.5 718.6,355.6 	"/>
	<polyline class="st10" points="797.8,491.1 793.3,484.4 800.4,483.5 	"/>
	<polyline class="st10" points="394.3,83.9 400.6,89 394.1,92 	"/>
	<polyline class="st10" points="593.5,320.4 585.8,318.3 590.6,312.9 	"/>
	<polyline class="st10" points="531.3,239.8 523.3,238.9 527.2,232.8 	"/>
	<polyline class="st10" points="496.8,163.9 490.8,169.2 488.9,162.2 	"/>
	<polyline class="st10" points="441.2,54.6 444.6,61.9 437.4,61.7 	"/>
	<polyline class="st10" points="483.8,94 483.6,102 477.2,98.7 	"/>
	<polyline class="st10" points="508,124.2 504.6,131.5 500.2,125.9 	"/>
</g>
<g id="nodes">
	<circle class="st12" cx="339.9" cy="491.7" r="12.5"/>
	<circle class="st12" cx="346.8" cy="602.3" r="17.5"/>
	<circle class="st12" cx="926.6" cy="261.5" r="11.2"/>
	<circle class="st12" cx="826.9" cy="291.9" r="12.5"/>
	<circle class="st12" cx="788.6" cy="420.3" r="25"/>
	<circle class="st12" cx="697.4" cy="710.2" r="13.8"/>
	<circle class="st12" cx="225.5" cy="544.8" r="11.2"/>
	<circle class="st12" cx="471" cy="588.8" r="12.5"/>
	<circle class="st12" cx="849.2" cy="334.1" r="10"/>
	<circle class="st12" cx="451.7" cy="654.7" r="10"/>
	<circle class="st12" cx="315.7" cy="682.6" r="11.2"/>
	<circle class="st12" cx="445.5" cy="392.2" r="20"/>
	<circle class="st12" cx="488.9" cy="335.6" r="11.2"/>
	<circle class="st12" cx="789.1" cy="738" r="11.2"/>
	<circle class="st12" cx="548.6" cy="381.1" r="11.2"/>
	<circle class="st12" cx="946.2" cy="423.6" r="11.2"/>
	<circle class="st12" cx="438.4" cy="179.6" r="17.5"/>
	<circle class="st12" cx="310.8" cy="198.9" r="11.2"/>
	<circle class="st12" cx="63.5" cy="332.9" r="10"/>
	<circle class="st12" cx="170.6" cy="303.6" r="12.5"/>
	<circle class="st12" cx="846.4" cy="539.3" r="11.2"/>
	<circle class="st12" cx="915" cy="586.2" r="16.2"/>
	<circle class="st12" cx="344.5" cy="163.8" r="10"/>
	<circle class="st12" cx="607.9" cy="333.5" r="11.2"/>
	<circle class="st12" cx="372.1" cy="253.9" r="10"/>
	<circle class="st12" cx="854.4" cy="630.7" r="10"/>
	<circle class="st12" cx="369.5" cy="104.8" r="10"/>
	<circle class="st12" cx="934.9" cy="651.2" r="10"/>
	<circle class="st12" cx="886.6" cy="469.1" r="10"/>
	<circle class="st12" cx="926.7" cy="323.2" r="10"/>
	<circle class="st12" cx="870.4" cy="680.5" r="11.2"/>
	<circle class="st12" cx="298.1" cy="739.3" r="11.2"/>
	<circle class="st12" cx="280.6" cy="796.6" r="11.2"/>
	<circle class="st12" cx="206.1" cy="392.7" r="10"/>
	<circle class="st12" cx="735.7" cy="223.7" r="11.2"/>
	<circle class="st12" cx="795.9" cy="184" r="11.2"/>
	<circle class="st12" cx="1074.9" cy="401.2" r="10"/>
	<circle class="st12" cx="704.9" cy="44.5" r="10"/>
	<circle class="st12" cx="806.3" cy="79.3" r="11.2"/>
	<circle class="st12" cx="423.6" cy="705.7" r="12.5"/>
	<circle class="st12" cx="209.9" cy="693.1" r="11.2"/>
	<circle class="st12" cx="214.5" cy="616" r="11.2"/>
	<circle class="st12" cx="388.1" cy="300.6" r="11.2"/>
	<circle class="st12" cx="885.5" cy="128.5" r="11.2"/>
	<circle class="st12" cx="633.5" cy="203.4" r="10"/>
	<circle class="st12" cx="672" cy="261.3" r="12.5"/>
	<circle class="st12" cx="661.8" cy="637.8" r="11.2"/>
	<circle class="st12" cx="766.9" cy="668" r="11.2"/>
	<circle class="st12" cx="609.3" cy="684.1" r="11.3"/>
	<circle class="st12" cx="711.2" cy="794.3" r="11.2"/>
	<circle class="st12" cx="587.9" cy="634.1" r="13.8"/>
	<circle class="st12" cx="741.6" cy="758.1" r="11.2"/>
	<circle class="st12" cx="174.9" cy="210.5" r="11.2"/>
	<circle class="st12" cx="327.6" cy="409.9" r="10"/>
	<circle class="st12" cx="400.7" cy="475.2" r="10"/>
	<circle class="st12" cx="305.7" cy="363.8" r="10"/>
	<circle class="st12" cx="1000.2" cy="235.5" r="10"/>
	<circle class="st12" cx="1078.4" cy="208.6" r="11.2"/>
	<circle class="st12" cx="555.8" cy="577.7" r="11.2"/>
	<circle class="st12" cx="361.1" cy="350.7" r="10"/>
	<circle class="st12" cx="316.4" cy="456.9" r="10"/>
	<circle class="st12" cx="470.9" cy="768.1" r="10"/>
	<circle class="st12" cx="1023.6" cy="714" r="10"/>
	<circle class="st12" cx="424.3" cy="536.6" r="10"/>
	<circle class="st12" cx="699.3" cy="155.1" r="11.2"/>
	<circle class="st12" cx="650.2" cy="111.7" r="11.2"/>
	<circle class="st12" cx="927.1" cy="373.4" r="11.2"/>
	<circle class="st12" cx="895.2" cy="507.5" r="11.2"/>
	<circle class="st12" cx="526" cy="458.2" r="12.5"/>
	<circle class="st12" cx="1010.7" cy="329.1" r="11.2"/>
	<circle class="st12" cx="1010.9" cy="380.3" r="11.2"/>
	<circle class="st12" cx="971.9" cy="466.7" r="11.2"/>
	<circle class="st12" cx="1005.9" cy="516.4" r="11.2"/>
	<circle class="st12" cx="351.7" cy="224.6" r="11.2"/>
	<circle class="st12" cx="459.2" cy="241.7" r="11.2"/>
	<circle class="st12" cx="312.4" cy="118.9" r="11.2"/>
	<circle class="st12" cx="781.7" cy="558.4" r="10"/>
	<circle class="st12" cx="654.3" cy="774.1" r="10"/>
	<circle class="st12" cx="596.3" cy="421.3" r="11.2"/>
	<circle class="st12" cx="554" cy="184.7" r="10"/>
	<circle class="st12" cx="631.2" cy="731.9" r="10"/>
	<circle class="st12" cx="523.5" cy="214.3" r="10"/>
	<circle class="st12" cx="886.5" cy="217.6" r="10"/>
	<circle class="st12" cx="1038.9" cy="571.7" r="11.2"/>
	<circle class="st12" cx="690.1" cy="453" r="10"/>
	<circle class="st12" cx="547.6" cy="250.3" r="11.2"/>
	<circle class="st12" cx="1047.6" cy="641.9" r="10"/>
	<circle class="st12" cx="461.2" cy="306.2" r="10"/>
	<circle class="st12" cx="585.4" cy="532.9" r="11.2"/>
	<circle class="st12" cx="706.5" cy="551.9" r="11.2"/>
	<circle class="st12" cx="717.6" cy="301.5" r="11.2"/>
	<circle class="st12" cx="775.3" cy="328.6" r="11.2"/>
	<circle class="st12" cx="672" cy="498.6" r="11.2"/>
	<circle class="st12" cx="702.3" cy="334.2" r="11.3"/>
	<circle class="st12" cx="800.3" cy="510.4" r="11.2"/>
	<circle class="st12" cx="386.2" cy="66.3" r="11.2"/>
	<circle class="st12" cx="515.6" cy="158.8" r="11.2"/>
	<circle class="st12" cx="441.6" cy="35.1" r="11.2"/>
	<circle class="st12" cx="492.9" cy="76.8" r="11.2"/>
	<circle class="st12" cx="523.3" cy="112.1" r="11.2"/>
</g>
<g id="node-labels">
	<text transform="matrix(1 0 0 1 299.5229 502.2902)" class="st13 st14">negro</text>
	<text transform="matrix(1 0 0 1 314.7375 614.554)" class="st15 st16">like</text>
	<text transform="matrix(1 0 0 1 862.4945 271.689)" class="st13 st17">intercourse</text>
	<text transform="matrix(1 0 0 1 790.959 300.5902)" class="st13 st14">with</text>
	<text transform="matrix(1 0 0 1 731.2879 436.9028)" class="st15 st18">wife</text>
	<text transform="matrix(1 0 0 1 642.5498 737.5791)" class="st13 st19">mother</text>
	<text transform="matrix(1 0 0 1 28.6951 553.4)" class="st13 st17">coloredsoldier</text>
	<text transform="matrix(1 0 0 1 419.645 615.5789)" class="st13 st14">brother</text>
	<text transform="matrix(1 0 0 1 410.0021 669.2196)" class="st13 st20">colorman</text>
	<text transform="matrix(1 0 0 1 282.42 691.7202)" class="st13 st17">white</text>
	<text transform="matrix(1 0 0 1 388.0793 402.3448)" class="st15 st21">marry</text>
	<text transform="matrix(1 0 0 1 483.7513 334.2406)" class="st13 st17">life</text>
	<text transform="matrix(1 0 0 1 512.0155 382.6553)" class="st13 st17">soldier</text>
	<text transform="matrix(1 0 0 1 942.853 471.1478)" class="st13 st17">sick</text>
	<text transform="matrix(1 0 0 1 362.9122 189.4429)" class="st15 st16">woman</text>
	<text transform="matrix(1 0 0 1 12.9679 358.1893)" class="st13 st20">american</text>
	<text transform="matrix(1 0 0 1 79.1946 314.4805)" class="st13 st14">negrowoman</text>
	<text transform="matrix(1 0 0 1 815.4495 567.0218)" class="st13 st17">baby</text>
	<text transform="matrix(1 0 0 1 885.882 599.2969)" class="st15 st21">girl</text>
	<text transform="matrix(1 0 0 1 309.3409 168.412)" class="st13 st20">bus</text>
	<text transform="matrix(1 0 0 1 577.9008 340.6761)" class="st13 st17">child</text>
	<text transform="matrix(1 0 0 1 334.8276 279.5499)" class="st13 st20">civilian</text>
	<text transform="matrix(1 0 0 1 825.2036 656.2962)" class="st13 st20">clean</text>
	<text transform="matrix(1 0 0 1 903.578 676.7745)" class="st13 st20">colod</text>
	<text transform="matrix(1 0 0 1 894.8879 348.8779)" class="st13 st20">father</text>
	<text transform="matrix(1 0 0 1 847.5779 707.7877)" class="st13 st17">join</text>
	<text transform="matrix(1 0 0 1 243.0845 753.6325)" class="st13 st17">girlfriend</text>
	<text transform="matrix(1 0 0 1 248.1088 810.8019)" class="st13 st17">close</text>
	<text transform="matrix(1 0 0 1 156.3298 419.6649)" class="st13 st20">graduate</text>
	<text transform="matrix(1 0 0 1 700.9698 227.8815)" class="st15 st17">holler</text>
	<text transform="matrix(1 0 0 1 769.5872 186.2458)" class="st15 st17">rape</text>
	<text transform="matrix(1 0 0 1 1039.6758 426.7606)" class="st13 st20">intend</text>
	<text transform="matrix(1 0 0 1 650.9232 70.1006)" class="st13 st20">interracial</text>
	<text transform="matrix(1 0 0 1 750.5651 106.5701)" class="st13 st17">marriage</text>
	<text transform="matrix(1 0 0 1 371.2772 720.8168)" class="st15 st14">colorwoman</text>
	<text transform="matrix(1 0 0 1 69.5353 700.1763)" class="st13 st17">negroboy</text>
	<text transform="matrix(1 0 0 1 36.3054 622.7933)" class="st13 st17">negrosoldier</text>
	<text transform="matrix(1 0 0 1 329.9725 316.1436)" class="st13 st17">official</text>
	<text transform="matrix(1 0 0 1 848.1331 156.2888)" class="st13 st17">certify</text>
	<text transform="matrix(1 0 0 1 601.6409 215.6685)" class="st13 st20">meet</text>
	<text transform="matrix(1 0 0 1 587.198 269.4242)" class="st15 st14">whitewoman</text>
	<text transform="matrix(1 0 0 1 732.406 693.8899)" class="st13 st17">camp</text>
	<text transform="matrix(1 0 0 1 584.9189 710.3156)" class="st13 st17">dad</text>
	<text transform="matrix(1 0 0 1 695.1125 820.52)" class="st13 st17">far</text>
	<text transform="matrix(1 0 0 1 551.3401 644.5651)" class="st13 st19">sister</text>
	<text transform="matrix(1 0 0 1 722.7883 784.2902)" class="st13 st17">tell</text>
	<text transform="matrix(1 0 0 1 141.0446 236.2317)" class="st13 st17">attain</text>
	<text transform="matrix(1 0 0 1 284.9214 420.8506)" class="st13 st20">punish</text>
	<text transform="matrix(1 0 0 1 273.7363 369.81)" class="st13 st20">sea</text>
	<text transform="matrix(1 0 0 1 982.2759 235.5436)" class="st13 st20">sex</text>
	<text transform="matrix(1 0 0 1 1017.1114 206.5065)" class="st13 st17">associate</text>
	<text transform="matrix(1 0 0 1 269.3148 466.7442)" class="st13 st20">transfer</text>
	<text transform="matrix(1 0 0 1 450.3947 784.0846)" class="st15 st20">whip</text>
	<text transform="matrix(1 0 0 1 976.035 739.6274)" class="st13 st20">whiteboi</text>
	<text transform="matrix(1 0 0 1 370.7291 562.2183)" class="st13 st20">whiteman</text>
	<text transform="matrix(1 0 0 1 904.366 399.1812)" class="st13 st17">aint</text>
	<text transform="matrix(1 0 0 1 862.6167 533.7193)" class="st13 st17">leave</text>
	<text transform="matrix(1 0 0 1 502.6024 484.9269)" class="st13 st14">live</text>
	<text transform="matrix(1 0 0 1 972.8488 355.3353)" class="st13 st17">refuse</text>
	<text transform="matrix(1 0 0 1 977.7072 404.6221)" class="st13 st17">secur</text>
	<text transform="matrix(1 0 0 1 938.3765 542.5457)" class="st13 st17">sweetheart</text>
	<text transform="matrix(1 0 0 1 426.5119 267.9001)" class="st13 st17">insult</text>
	<text transform="matrix(1 0 0 1 269.7657 126.7952)" class="st13 st17">qualify</text>
	<text transform="matrix(1 0 0 1 744.2117 584.032)" class="st13 st20">soldier</text>
	<text transform="matrix(1 0 0 1 633.4704 799.4047)" class="st13 st20">age</text>
	<text transform="matrix(1 0 0 1 565.718 447.1644)" class="st13 st17">army</text>
	<text transform="matrix(1 0 0 1 522.8139 191.405)" class="st13 st20">blonde</text>
	<text transform="matrix(1 0 0 1 610.3306 758.8672)" class="st13 st20">boy</text>
	<text transform="matrix(1 0 0 1 846.4447 207.5903)" class="st13 st20">engage</text>
	<text transform="matrix(1 0 0 1 1011.3148 597.8392)" class="st13 st17">walk</text>
	<text transform="matrix(1 0 0 1 673.3499 478.5999)" class="st13 st20">kid</text>
	<text transform="matrix(1 0 0 1 510.0215 259.4961)" class="st13 st17">office</text>
	<text transform="matrix(1 0 0 1 1007.0434 667.908)" class="st13 st20">respect</text>
	<text transform="matrix(1 0 0 1 437.4327 304.4468)" class="st13 st20">send</text>
	<text transform="matrix(1 0 0 1 536.3272 560.5817)" class="st13 st17">depend</text>
	<text transform="matrix(1 0 0 1 661.5382 304.4466)" class="st13 st17">compare</text>
	<text transform="matrix(1 0 0 1 757.5125 339.8174)" class="st13 st17">die</text>
	<text transform="matrix(1 0 0 1 630.5005 525.293)" class="st13 st17">expect</text>
	<text transform="matrix(1 0 0 1 664.3256 344.1311)" class="st13 st17">major</text>
	<text transform="matrix(1 0 0 1 782.2567 535.5409)" class="st13 st17">set</text>
	<text transform="matrix(1 0 0 1 335.7794 94.0023)" class="st13 st17">auxiliary</text>
	<text transform="matrix(1 0 0 1 384.202 40.0007)" class="st13 st17">response</text>
	<text transform="matrix(1 0 0 1 461.6161 101.1243)" class="st13 st17">waac</text>
	<text transform="matrix(1 0 0 1 480.8627 138.3036)" class="st13 st17">worker</text>
</g>
</svg>
